# Blender 4.2.0
# www.blender.org
mtllib pinguinolow.mtl
o pinguino
v 11.257442 50.506950 -15.641386
v 13.465599 58.986881 -8.099079
v 16.933874 42.439720 -7.087502
v 11.458351 66.872360 -7.032606
v 4.568306 58.513901 1.137285
v 3.903528 61.601471 0.834446
v 5.960404 5.792793 0.749046
v 11.257441 5.133316 -5.845648
v 13.153687 14.858618 -10.073608
v 15.877984 22.781384 -1.470154
v 15.220834 29.004486 -10.855211
v 11.257442 25.236511 -14.780403
v 2.411443 56.701729 3.061890
v 5.723562 39.229134 5.869107
v 6.483729 21.551897 6.606424
v 11.257442 -0.007767 -16.144262
v 0.000001 0.012024 3.107027
v -2.643263 0.024895 -16.241985
v 11.257441 -0.007771 -8.152193
v 11.257441 -0.007767 -3.210152
v 2.643268 0.024895 -16.241983
v 5.718423 0.041222 8.926802
v 18.596130 22.449497 -1.879002
v 17.938980 28.672600 -11.264059
v -11.257436 50.506950 -15.641388
v -13.465595 58.986881 -8.099081
v -16.933870 42.439720 -7.087505
v 0.000003 48.740509 -18.798767
v 0.000003 60.736385 -18.167446
v -11.458347 66.872360 -7.032608
v 0.000003 65.607468 -15.342627
v -4.568304 58.513901 1.137284
v -3.903526 61.601471 0.834445
v 0.000001 67.569397 -1.535154
v 0.000002 69.366386 -8.031710
v 0.000001 62.802818 2.296972
v -5.960401 5.792793 0.749045
v 0.000001 6.430138 3.472021
v -11.257437 5.133316 -5.845650
v -13.153684 14.858618 -10.073610
v -15.877980 22.781384 -1.470156
v -15.220830 29.004486 -10.855215
v -11.257436 25.236511 -14.780405
v 0.000003 9.411509 -17.224133
v 0.000003 25.488249 -18.207047
v 0.000000 64.143112 9.938029
v 0.000001 57.031273 4.379978
v -2.411441 56.701729 3.061890
v 0.000001 40.025452 9.060093
v -5.723560 39.229134 5.869106
v -6.483727 21.551897 6.606423
v 0.000001 23.565573 9.586050
v 0.000003 4.290768 -17.274117
v -11.257436 -0.007767 -16.144264
v -11.257437 -0.007771 -8.152195
v -11.257437 -0.007767 -3.210154
v 0.000003 0.041225 -16.241985
v -5.718422 0.041222 8.926800
v -18.596127 22.449497 -1.879004
v -17.938976 28.672600 -11.264063
v 0.000002 0.026627 -6.567480
v 0.000002 0.019325 -1.730228
v -2.643263 0.024895 -19.357910
v 0.000003 2.879780 -18.763489
v 2.643268 0.024895 -19.357910
v 0.000003 0.041225 -19.357910
vn 0.8850 0.1588 -0.4376
vn 0.2623 0.0507 -0.9636
vn 0.4965 0.4355 -0.7509
vn 0.5865 0.3714 -0.7198
vn 0.7023 0.1892 0.6862
vn 0.6951 0.1199 0.7089
vn 0.1834 0.9475 0.2621
vn 0.3998 0.5520 0.7318
vn 0.2273 0.8661 -0.4453
vn -0.1908 0.5330 0.8243
vn 0.7918 0.4213 0.4421
vn -0.1525 -0.0323 -0.9878
vn 0.9685 -0.2301 -0.0948
vn 0.8929 -0.0402 -0.4484
vn 0.2000 0.0090 -0.9798
vn 0.2823 -0.0287 -0.9589
vn 0.7931 0.0106 -0.6090
vn 0.0116 -0.7374 0.6754
vn 0.9968 0.0782 -0.0179
vn 0.9161 0.2295 0.3287
vn 0.3274 -0.5818 0.7445
vn 0.7612 -0.2896 0.5803
vn 0.2319 0.9581 -0.1681
vn 0.4960 0.2295 0.8375
vn 0.7286 0.1517 0.6680
vn 0.6907 0.2111 0.6917
vn 0.6463 0.0595 0.7608
vn 0.4586 0.0431 0.8876
vn 0.7412 -0.2554 0.6209
vn 0.3353 -0.3269 0.8836
vn 0.6385 -0.3385 0.6912
vn 0.0102 -0.2292 -0.9733
vn 0.1035 0.0097 -0.9946
vn 0.9912 -0.1188 0.0593
vn 1.0000 -0.0000 -0.0000
vn 0.8977 -0.3356 -0.2854
vn -0.1091 0.2813 -0.9534
vn 0.1747 0.2618 0.9492
vn -0.8850 0.1588 -0.4376
vn -0.2623 0.0507 -0.9636
vn -0.4965 0.4355 -0.7509
vn -0.5865 0.3714 -0.7198
vn -0.7023 0.1892 0.6862
vn -0.6951 0.1199 0.7089
vn -0.1834 0.9475 0.2621
vn -0.3998 0.5520 0.7318
vn -0.2273 0.8661 -0.4453
vn 0.1908 0.5330 0.8243
vn -0.7918 0.4213 0.4421
vn 0.1525 -0.0323 -0.9878
vn -0.9685 -0.2301 -0.0948
vn -0.8929 -0.0402 -0.4484
vn -0.2000 0.0090 -0.9798
vn -0.2823 -0.0287 -0.9589
vn -0.7931 0.0106 -0.6090
vn -0.0116 -0.7374 0.6754
vn -0.9968 0.0782 -0.0179
vn -0.9161 0.2295 0.3287
vn -0.3274 -0.5818 0.7445
vn -0.7612 -0.2896 0.5803
vn -0.2319 0.9581 -0.1681
vn -0.4960 0.2295 0.8375
vn -0.7286 0.1517 0.6680
vn -0.6907 0.2111 0.6917
vn -0.6463 0.0595 0.7608
vn -0.4586 0.0431 0.8876
vn -0.7412 -0.2554 0.6209
vn -0.3353 -0.3269 0.8836
vn -0.6385 -0.3385 0.6912
vn -0.0102 -0.2292 -0.9733
vn -0.1035 0.0097 -0.9946
vn -0.9912 -0.1188 0.0593
vn -1.0000 -0.0000 -0.0000
vn -0.8977 -0.3356 -0.2854
vn 0.1091 0.2813 -0.9534
vn -0.1747 0.2618 0.9492
vn 0.0020 -1.0000 0.0031
vn -0.0066 -1.0000 -0.0015
vn -0.0020 -1.0000 0.0031
vn 0.0066 -1.0000 -0.0015
vn -0.7953 0.5796 -0.1776
vn -0.0062 -1.0000 -0.0000
vn 0.0028 -1.0000 -0.0007
vn 0.0034 -1.0000 -0.0004
vn 0.0062 -1.0000 -0.0015
vn -0.0028 -1.0000 -0.0007
vn -0.0034 -1.0000 -0.0004
vn -0.0062 -1.0000 -0.0015
vn -0.0013 0.2050 -0.9788
vn 0.0013 0.2050 -0.9788
vn 0.0062 -1.0000 -0.0000
vn 0.7953 0.5796 -0.1776
vt 0.498282 0.353054
vt 0.454408 0.412514
vt 0.428328 0.307492
vt 0.577104 0.354331
vt 0.563844 0.429923
vt 0.457706 0.464839
vt 0.551320 0.463652
vt 0.868425 0.868185
vt 0.947542 0.752847
vt 0.950197 0.861018
vt 0.942874 0.912933
vt 0.869375 0.888433
vt 0.862166 0.937739
vt 0.889815 0.970781
vt 0.842715 0.903839
vt 0.523255 0.508064
vt 0.819065 0.431395
vt 0.848941 0.407817
vt 0.856517 0.471198
vt 0.812727 0.482267
vt 0.425470 0.059880
vt 0.382758 0.012399
vt 0.467526 0.022961
vt 0.479683 0.057423
vt 0.498134 0.123732
vt 0.485002 0.214256
vt 0.382398 0.185011
vt 0.403687 0.067060
vt 0.434486 0.128626
vt 0.549506 0.034516
vt 0.522634 0.193359
vt 0.614589 0.105639
vt 0.599849 0.207480
vt 0.552205 0.034952
vt 0.445808 0.219393
vt 0.479497 0.192611
vt 0.173736 0.563253
vt 0.193613 0.559160
vt 0.222553 0.619251
vt 0.404452 0.940150
vt 0.424444 0.934827
vt 0.400006 0.997643
vt 0.165417 0.583404
vt 0.222553 0.569689
vt 0.374318 0.831561
vt 0.417968 0.819989
vt 0.529204 0.827606
vt 0.483274 0.705125
vt 0.450087 0.942945
vt 0.430021 0.934378
vt 0.403685 0.707757
vt 0.357433 0.727712
vt 0.411562 0.600585
vt 0.464052 0.586821
vt 0.353826 0.611536
vt 0.397616 0.600468
vt 0.508008 0.029854
vt 0.618870 0.171414
vt 0.000000 0.000000
vt 0.055337 0.096293
vt 0.498828 0.027372
vt 0.548686 0.034420
vt 0.807435 0.443263
vt 0.532095 0.034616
s 0
usemtl Default_OBJ
f 1/1/1 2/2/1 3/3/1
f 1/1/2 28/4/2 29/5/2
f 4/6/3 29/5/3 31/7/3
f 2/2/4 1/1/4 29/5/4 4/6/4
f 5/8/5 3/9/5 2/10/5
f 2/10/6 4/11/6 6/12/6 5/8/6
f 34/13/7 4/11/7 35/14/7
f 34/13/8 36/15/8 6/12/8 4/11/8
f 35/16/9 4/6/9 31/7/9
f 17/17/10 22/18/10 7/19/10 38/20/10
f 7/21/11 22/22/11 20/23/11 8/24/11
f 9/25/12 11/26/12 24/26/12
f 10/27/13 8/28/13 9/29/13
f 9/25/14 16/30/14 12/31/14 11/26/14
f 44/32/15 45/33/15 12/31/15 16/34/15
f 28/4/16 1/1/16 12/31/16 45/33/16
f 3/3/17 11/35/17 12/36/17 1/1/17
f 10/27/18 9/29/18 23/27/18
f 23/27/19 24/35/19 3/3/19
f 5/37/20 6/38/20 46/39/20
f 47/40/21 13/41/21 46/42/21
f 13/43/22 5/37/22 46/39/22
f 6/38/23 36/44/23 46/39/23
f 13/41/24 47/40/24 49/45/24 14/46/24
f 3/47/25 14/46/25 10/48/25
f 5/49/26 13/50/26 14/46/26 3/47/26
f 10/48/27 14/46/27 15/51/27
f 14/46/28 49/45/28 52/52/28 15/51/28
f 7/53/29 8/54/29 15/51/29
f 15/51/30 52/52/30 38/55/30 7/56/30
f 8/54/31 10/48/31 15/51/31
f 16/57/32 21/58/32 53/59/32
f 16/57/33 53/59/33 44/60/33
f 19/61/34 16/62/34 9/25/34 8/24/34
f 20/23/35 19/61/35 8/24/35
f 9/29/36 24/35/36 23/27/36
f 11/35/37 3/3/37 24/35/37
f 3/47/38 10/48/38 23/48/38
f 25/1/39 27/3/39 26/2/39
f 25/1/40 29/5/40 28/4/40
f 30/6/41 31/7/41 29/5/41
f 26/2/42 30/6/42 29/5/42 25/1/42
f 32/8/43 26/10/43 27/9/43
f 26/10/44 32/8/44 33/12/44 30/11/44
f 34/13/45 35/14/45 30/11/45
f 34/13/46 30/11/46 33/12/46 36/15/46
f 35/16/47 31/7/47 30/6/47
f 17/63/48 38/20/48 37/19/48 58/18/48
f 37/21/49 39/24/49 56/23/49 58/22/49
f 40/25/50 60/26/50 42/26/50
f 41/27/51 40/29/51 39/28/51
f 40/25/52 42/26/52 43/31/52 54/62/52
f 44/32/53 54/30/53 43/31/53 45/33/53
f 28/4/54 45/33/54 43/31/54 25/1/54
f 27/3/55 25/1/55 43/36/55 42/35/55
f 41/27/56 59/27/56 40/29/56
f 59/27/57 27/3/57 60/35/57
f 32/37/58 46/39/58 33/38/58
f 47/40/59 46/42/59 48/41/59
f 48/43/60 46/39/60 32/37/60
f 33/38/61 46/39/61 36/44/61
f 48/41/62 50/46/62 49/45/62 47/40/62
f 27/47/63 41/48/63 50/46/63
f 32/49/64 27/47/64 50/46/64 48/50/64
f 41/48/65 51/51/65 50/46/65
f 50/46/66 51/51/66 52/52/66 49/45/66
f 37/53/67 51/51/67 39/54/67
f 51/51/68 37/56/68 38/55/68 52/52/68
f 39/54/69 51/51/69 41/48/69
f 54/57/70 53/59/70 18/58/70
f 54/64/71 44/60/71 53/59/71
f 55/61/72 39/24/72 40/25/72 54/62/72
f 56/23/73 39/24/73 55/61/73
f 40/29/74 59/27/74 60/35/74
f 42/35/75 60/35/75 27/3/75
f 27/47/76 59/48/76 41/48/76
f 58/22/77 56/23/77 62/22/77
f 17/63/78 58/22/78 62/22/78
f 20/23/79 22/22/79 62/23/79
f 17/63/80 62/22/80 22/22/80
f 18/58/81 53/59/81 64/59/81 63/58/81
f 21/58/82 57/59/82 66/59/82 65/58/82
f 56/23/83 55/61/83 61/61/83 62/23/83
f 61/61/84 55/61/84 54/61/84 18/61/84
f 18/61/85 57/59/85 61/61/85
f 19/61/86 20/23/86 62/23/86 61/61/86
f 21/58/87 16/57/87 19/57/87 61/58/87
f 21/58/88 61/58/88 57/59/88
f 64/59/89 66/59/89 63/58/89
f 64/59/90 65/58/90 66/59/90
f 57/59/91 18/61/91 63/61/91 66/59/91
f 53/59/92 21/58/92 65/58/92 64/59/92
